<mxfile host="app.diagrams.net" agent="Mozilla/5.0 (Windows NT 10.0; Win64; x64) AppleWebKit/537.36 (KHTML, like Gecko) Chrome/135.0.0.0 Safari/537.36 Edg/135.0.0.0" version="26.2.12">
  <diagram name="Page-1" id="QQEMfT6V_bdnseHN_T6_">
    <mxGraphModel dx="1835" dy="1119" grid="1" gridSize="10" guides="1" tooltips="1" connect="1" arrows="1" fold="1" page="1" pageScale="1" pageWidth="1654" pageHeight="2336" math="0" shadow="0">
      <root>
        <mxCell id="0" />
        <mxCell id="1" parent="0" />
        <mxCell id="7C-NoapM2nCU8hshfc4--1" value="Đặt hàng và thanh toán" style="shape=umlFrame;whiteSpace=wrap;html=1;pointerEvents=0;width=150;height=40;" parent="1" vertex="1">
          <mxGeometry x="50" y="190" width="1760" height="1110" as="geometry" />
        </mxCell>
        <mxCell id="7C-NoapM2nCU8hshfc4--2" value="" style="shape=umlLifeline;perimeter=lifelinePerimeter;whiteSpace=wrap;html=1;container=1;dropTarget=0;collapsible=0;recursiveResize=0;outlineConnect=0;portConstraint=eastwest;newEdgeStyle={&quot;curved&quot;:0,&quot;rounded&quot;:0};participant=umlActor;" parent="1" vertex="1">
          <mxGeometry x="150" y="270" width="20" height="1050" as="geometry" />
        </mxCell>
        <mxCell id="7C-NoapM2nCU8hshfc4--3" value="khách hàng" style="text;html=1;align=center;verticalAlign=middle;resizable=0;points=[];autosize=1;strokeColor=none;fillColor=none;fontSize=15;" parent="1" vertex="1">
          <mxGeometry x="110" y="228" width="100" height="30" as="geometry" />
        </mxCell>
        <mxCell id="7C-NoapM2nCU8hshfc4--4" value="Giao diện chi tiết sản phẩm" style="shape=umlLifeline;perimeter=lifelinePerimeter;whiteSpace=wrap;html=1;container=1;dropTarget=0;collapsible=0;recursiveResize=0;outlineConnect=0;portConstraint=eastwest;newEdgeStyle={&quot;curved&quot;:0,&quot;rounded&quot;:0};" parent="1" vertex="1">
          <mxGeometry x="360" y="270" width="100" height="1010" as="geometry" />
        </mxCell>
        <mxCell id="7C-NoapM2nCU8hshfc4--8" value="" style="html=1;points=[[0,0,0,0,5],[0,1,0,0,-5],[1,0,0,0,5],[1,1,0,0,-5]];perimeter=orthogonalPerimeter;outlineConnect=0;targetShapes=umlLifeline;portConstraint=eastwest;newEdgeStyle={&quot;curved&quot;:0,&quot;rounded&quot;:0};" parent="7C-NoapM2nCU8hshfc4--4" vertex="1">
          <mxGeometry x="45" y="80" width="10" height="70" as="geometry" />
        </mxCell>
        <mxCell id="7C-NoapM2nCU8hshfc4--5" value="Giao diện đặt hàng" style="shape=umlLifeline;perimeter=lifelinePerimeter;whiteSpace=wrap;html=1;container=1;dropTarget=0;collapsible=0;recursiveResize=0;outlineConnect=0;portConstraint=eastwest;newEdgeStyle={&quot;curved&quot;:0,&quot;rounded&quot;:0};" parent="1" vertex="1">
          <mxGeometry x="590" y="270" width="100" height="970" as="geometry" />
        </mxCell>
        <mxCell id="7C-NoapM2nCU8hshfc4--10" value="" style="html=1;points=[[0,0,0,0,5],[0,1,0,0,-5],[1,0,0,0,5],[1,1,0,0,-5]];perimeter=orthogonalPerimeter;outlineConnect=0;targetShapes=umlLifeline;portConstraint=eastwest;newEdgeStyle={&quot;curved&quot;:0,&quot;rounded&quot;:0};" parent="7C-NoapM2nCU8hshfc4--5" vertex="1">
          <mxGeometry x="45" y="90" width="10" height="250" as="geometry" />
        </mxCell>
        <mxCell id="7C-NoapM2nCU8hshfc4--14" value="" style="html=1;points=[[0,0,0,0,5],[0,1,0,0,-5],[1,0,0,0,5],[1,1,0,0,-5]];perimeter=orthogonalPerimeter;outlineConnect=0;targetShapes=umlLifeline;portConstraint=eastwest;newEdgeStyle={&quot;curved&quot;:0,&quot;rounded&quot;:0};" parent="7C-NoapM2nCU8hshfc4--5" vertex="1">
          <mxGeometry x="45" y="140" width="10" height="40" as="geometry" />
        </mxCell>
        <mxCell id="7C-NoapM2nCU8hshfc4--15" value="hiển thị sản phảm đã chọn" style="html=1;align=left;spacingLeft=2;endArrow=block;rounded=0;edgeStyle=orthogonalEdgeStyle;curved=0;rounded=0;" parent="7C-NoapM2nCU8hshfc4--5" target="7C-NoapM2nCU8hshfc4--14" edge="1">
          <mxGeometry relative="1" as="geometry">
            <mxPoint x="50" y="120" as="sourcePoint" />
            <Array as="points">
              <mxPoint x="80" y="150" />
            </Array>
          </mxGeometry>
        </mxCell>
        <mxCell id="7C-NoapM2nCU8hshfc4--6" value="Xử lý đơn hàng" style="shape=umlLifeline;perimeter=lifelinePerimeter;whiteSpace=wrap;html=1;container=1;dropTarget=0;collapsible=0;recursiveResize=0;outlineConnect=0;portConstraint=eastwest;newEdgeStyle={&quot;curved&quot;:0,&quot;rounded&quot;:0};" parent="1" vertex="1">
          <mxGeometry x="850" y="270" width="100" height="990" as="geometry" />
        </mxCell>
        <mxCell id="7C-NoapM2nCU8hshfc4--18" value="" style="html=1;points=[[0,0,0,0,5],[0,1,0,0,-5],[1,0,0,0,5],[1,1,0,0,-5]];perimeter=orthogonalPerimeter;outlineConnect=0;targetShapes=umlLifeline;portConstraint=eastwest;newEdgeStyle={&quot;curved&quot;:0,&quot;rounded&quot;:0};" parent="7C-NoapM2nCU8hshfc4--6" vertex="1">
          <mxGeometry x="45" y="250" width="10" height="40" as="geometry" />
        </mxCell>
        <mxCell id="HIb0kIp2rgjTtnl3dIR1-26" value="" style="html=1;points=[[0,0,0,0,5],[0,1,0,0,-5],[1,0,0,0,5],[1,1,0,0,-5]];perimeter=orthogonalPerimeter;outlineConnect=0;targetShapes=umlLifeline;portConstraint=eastwest;newEdgeStyle={&quot;curved&quot;:0,&quot;rounded&quot;:0};" vertex="1" parent="7C-NoapM2nCU8hshfc4--6">
          <mxGeometry x="45" y="550" width="10" height="160" as="geometry" />
        </mxCell>
        <mxCell id="7C-NoapM2nCU8hshfc4--7" value="Cơ sở dữ liệu hóa đơn bán hàng" style="shape=umlLifeline;perimeter=lifelinePerimeter;whiteSpace=wrap;html=1;container=1;dropTarget=0;collapsible=0;recursiveResize=0;outlineConnect=0;portConstraint=eastwest;newEdgeStyle={&quot;curved&quot;:0,&quot;rounded&quot;:0};" parent="1" vertex="1">
          <mxGeometry x="1105" y="275" width="100" height="980" as="geometry" />
        </mxCell>
        <mxCell id="HIb0kIp2rgjTtnl3dIR1-28" value="" style="html=1;points=[[0,0,0,0,5],[0,1,0,0,-5],[1,0,0,0,5],[1,1,0,0,-5]];perimeter=orthogonalPerimeter;outlineConnect=0;targetShapes=umlLifeline;portConstraint=eastwest;newEdgeStyle={&quot;curved&quot;:0,&quot;rounded&quot;:0};" vertex="1" parent="7C-NoapM2nCU8hshfc4--7">
          <mxGeometry x="45" y="595" width="10" height="80" as="geometry" />
        </mxCell>
        <mxCell id="HIb0kIp2rgjTtnl3dIR1-1" value="chọn &quot;Đặt hàng&quot;" style="html=1;verticalAlign=bottom;endArrow=block;curved=0;rounded=0;entryX=0.919;entryY=0.309;entryDx=0;entryDy=0;entryPerimeter=0;" edge="1" parent="1" source="7C-NoapM2nCU8hshfc4--2" target="7C-NoapM2nCU8hshfc4--8">
          <mxGeometry width="80" relative="1" as="geometry">
            <mxPoint x="770" y="320" as="sourcePoint" />
            <mxPoint x="1023" y="320" as="targetPoint" />
          </mxGeometry>
        </mxCell>
        <mxCell id="HIb0kIp2rgjTtnl3dIR1-2" value="hiển thị đặt hàng" style="html=1;verticalAlign=bottom;endArrow=block;curved=0;rounded=0;entryX=0.828;entryY=0.102;entryDx=0;entryDy=0;entryPerimeter=0;" edge="1" parent="1" source="7C-NoapM2nCU8hshfc4--4" target="7C-NoapM2nCU8hshfc4--10">
          <mxGeometry width="80" relative="1" as="geometry">
            <mxPoint x="980" y="360" as="sourcePoint" />
            <mxPoint x="1213" y="360" as="targetPoint" />
          </mxGeometry>
        </mxCell>
        <mxCell id="HIb0kIp2rgjTtnl3dIR1-3" value="thay đỏi số lượng (nếu có)" style="html=1;verticalAlign=bottom;endArrow=block;curved=0;rounded=0;entryX=0.524;entryY=0.198;entryDx=0;entryDy=0;entryPerimeter=0;" edge="1" parent="1" source="7C-NoapM2nCU8hshfc4--2" target="7C-NoapM2nCU8hshfc4--5">
          <mxGeometry width="80" relative="1" as="geometry">
            <mxPoint x="500" y="450" as="sourcePoint" />
            <mxPoint x="978" y="450" as="targetPoint" />
          </mxGeometry>
        </mxCell>
        <mxCell id="HIb0kIp2rgjTtnl3dIR1-4" value="điền thông tin giao hàng" style="html=1;verticalAlign=bottom;endArrow=block;curved=0;rounded=0;entryX=0.506;entryY=0.229;entryDx=0;entryDy=0;entryPerimeter=0;" edge="1" parent="1" source="7C-NoapM2nCU8hshfc4--2" target="7C-NoapM2nCU8hshfc4--5">
          <mxGeometry width="80" relative="1" as="geometry">
            <mxPoint x="800" y="490" as="sourcePoint" />
            <mxPoint x="1276" y="490" as="targetPoint" />
          </mxGeometry>
        </mxCell>
        <mxCell id="HIb0kIp2rgjTtnl3dIR1-5" value="chọn &quot;tiến hành thanh toán&quot;" style="html=1;verticalAlign=bottom;endArrow=block;curved=0;rounded=0;entryX=0.487;entryY=0.258;entryDx=0;entryDy=0;entryPerimeter=0;" edge="1" parent="1" source="7C-NoapM2nCU8hshfc4--2" target="7C-NoapM2nCU8hshfc4--5">
          <mxGeometry width="80" relative="1" as="geometry">
            <mxPoint x="820" y="470" as="sourcePoint" />
            <mxPoint x="1303" y="470" as="targetPoint" />
          </mxGeometry>
        </mxCell>
        <mxCell id="HIb0kIp2rgjTtnl3dIR1-9" value="dispatch" style="html=1;verticalAlign=bottom;endArrow=block;curved=0;rounded=0;entryX=0.533;entryY=0.269;entryDx=0;entryDy=0;entryPerimeter=0;" edge="1" parent="1" source="7C-NoapM2nCU8hshfc4--5" target="7C-NoapM2nCU8hshfc4--6">
          <mxGeometry width="80" relative="1" as="geometry">
            <mxPoint x="730" y="540" as="sourcePoint" />
            <mxPoint x="810" y="540" as="targetPoint" />
          </mxGeometry>
        </mxCell>
        <mxCell id="HIb0kIp2rgjTtnl3dIR1-12" value="Giao diện thanh toán" style="shape=umlLifeline;perimeter=lifelinePerimeter;whiteSpace=wrap;html=1;container=1;dropTarget=0;collapsible=0;recursiveResize=0;outlineConnect=0;portConstraint=eastwest;newEdgeStyle={&quot;curved&quot;:0,&quot;rounded&quot;:0};" vertex="1" parent="1">
          <mxGeometry x="1300" y="270" width="100" height="1020" as="geometry" />
        </mxCell>
        <mxCell id="HIb0kIp2rgjTtnl3dIR1-14" value="" style="html=1;points=[[0,0,0,0,5],[0,1,0,0,-5],[1,0,0,0,5],[1,1,0,0,-5]];perimeter=orthogonalPerimeter;outlineConnect=0;targetShapes=umlLifeline;portConstraint=eastwest;newEdgeStyle={&quot;curved&quot;:0,&quot;rounded&quot;:0};" vertex="1" parent="HIb0kIp2rgjTtnl3dIR1-12">
          <mxGeometry x="45" y="270" width="10" height="80" as="geometry" />
        </mxCell>
        <mxCell id="HIb0kIp2rgjTtnl3dIR1-17" value="" style="html=1;points=[[0,0,0,0,5],[0,1,0,0,-5],[1,0,0,0,5],[1,1,0,0,-5]];perimeter=orthogonalPerimeter;outlineConnect=0;targetShapes=umlLifeline;portConstraint=eastwest;newEdgeStyle={&quot;curved&quot;:0,&quot;rounded&quot;:0};" vertex="1" parent="HIb0kIp2rgjTtnl3dIR1-12">
          <mxGeometry x="45" y="390" width="10" height="70" as="geometry" />
        </mxCell>
        <mxCell id="HIb0kIp2rgjTtnl3dIR1-50" value="" style="html=1;points=[[0,0,0,0,5],[0,1,0,0,-5],[1,0,0,0,5],[1,1,0,0,-5]];perimeter=orthogonalPerimeter;outlineConnect=0;targetShapes=umlLifeline;portConstraint=eastwest;newEdgeStyle={&quot;curved&quot;:0,&quot;rounded&quot;:0};" vertex="1" parent="HIb0kIp2rgjTtnl3dIR1-12">
          <mxGeometry x="45" y="940" width="10" height="80" as="geometry" />
        </mxCell>
        <mxCell id="HIb0kIp2rgjTtnl3dIR1-13" value="hiển thị tùy chọn thành toán" style="html=1;verticalAlign=bottom;endArrow=block;curved=0;rounded=0;entryX=0.506;entryY=0.315;entryDx=0;entryDy=0;entryPerimeter=0;" edge="1" parent="1" source="7C-NoapM2nCU8hshfc4--5" target="HIb0kIp2rgjTtnl3dIR1-12">
          <mxGeometry x="-0.0021" width="80" relative="1" as="geometry">
            <mxPoint x="960" y="670" as="sourcePoint" />
            <mxPoint x="1434.2800000000002" y="669.98" as="targetPoint" />
            <mxPoint as="offset" />
          </mxGeometry>
        </mxCell>
        <mxCell id="HIb0kIp2rgjTtnl3dIR1-15" value="hệ thống thanh toán trực tuyến" style="shape=umlLifeline;perimeter=lifelinePerimeter;whiteSpace=wrap;html=1;container=1;dropTarget=0;collapsible=0;recursiveResize=0;outlineConnect=0;portConstraint=eastwest;newEdgeStyle={&quot;curved&quot;:0,&quot;rounded&quot;:0};" vertex="1" parent="1">
          <mxGeometry x="1580" y="265" width="100" height="1000" as="geometry" />
        </mxCell>
        <mxCell id="HIb0kIp2rgjTtnl3dIR1-19" value="" style="html=1;points=[[0,0,0,0,5],[0,1,0,0,-5],[1,0,0,0,5],[1,1,0,0,-5]];perimeter=orthogonalPerimeter;outlineConnect=0;targetShapes=umlLifeline;portConstraint=eastwest;newEdgeStyle={&quot;curved&quot;:0,&quot;rounded&quot;:0};" vertex="1" parent="HIb0kIp2rgjTtnl3dIR1-15">
          <mxGeometry x="45" y="405" width="10" height="175" as="geometry" />
        </mxCell>
        <mxCell id="HIb0kIp2rgjTtnl3dIR1-22" value="" style="html=1;points=[[0,0,0,0,5],[0,1,0,0,-5],[1,0,0,0,5],[1,1,0,0,-5]];perimeter=orthogonalPerimeter;outlineConnect=0;targetShapes=umlLifeline;portConstraint=eastwest;newEdgeStyle={&quot;curved&quot;:0,&quot;rounded&quot;:0};" vertex="1" parent="HIb0kIp2rgjTtnl3dIR1-15">
          <mxGeometry x="45" y="505" width="10" height="40" as="geometry" />
        </mxCell>
        <mxCell id="HIb0kIp2rgjTtnl3dIR1-23" value="xử lý thanh toán" style="html=1;align=left;spacingLeft=2;endArrow=block;rounded=0;edgeStyle=orthogonalEdgeStyle;curved=0;rounded=0;" edge="1" target="HIb0kIp2rgjTtnl3dIR1-22" parent="HIb0kIp2rgjTtnl3dIR1-15">
          <mxGeometry x="-0.0118" relative="1" as="geometry">
            <mxPoint x="50" y="485" as="sourcePoint" />
            <Array as="points">
              <mxPoint x="80" y="515" />
            </Array>
            <mxPoint as="offset" />
          </mxGeometry>
        </mxCell>
        <mxCell id="HIb0kIp2rgjTtnl3dIR1-16" value="alternative" style="shape=umlFrame;whiteSpace=wrap;html=1;pointerEvents=0;" vertex="1" parent="1">
          <mxGeometry x="90" y="630" width="1670" height="610" as="geometry" />
        </mxCell>
        <mxCell id="HIb0kIp2rgjTtnl3dIR1-18" value="chọn &quot;thanh toán trực tuyến&quot;" style="html=1;verticalAlign=bottom;endArrow=block;curved=0;rounded=0;entryX=0.524;entryY=0.419;entryDx=0;entryDy=0;entryPerimeter=0;" edge="1" parent="1" source="7C-NoapM2nCU8hshfc4--2" target="HIb0kIp2rgjTtnl3dIR1-12">
          <mxGeometry width="80" relative="1" as="geometry">
            <mxPoint x="700" y="780" as="sourcePoint" />
            <mxPoint x="780" y="780" as="targetPoint" />
          </mxGeometry>
        </mxCell>
        <mxCell id="HIb0kIp2rgjTtnl3dIR1-21" value="nhập thông tin thanh toán" style="html=1;verticalAlign=bottom;endArrow=block;curved=0;rounded=0;entryX=0.542;entryY=0.476;entryDx=0;entryDy=0;entryPerimeter=0;" edge="1" parent="1" source="7C-NoapM2nCU8hshfc4--2" target="HIb0kIp2rgjTtnl3dIR1-15">
          <mxGeometry width="80" relative="1" as="geometry">
            <mxPoint x="710" y="720" as="sourcePoint" />
            <mxPoint x="790" y="720" as="targetPoint" />
          </mxGeometry>
        </mxCell>
        <mxCell id="HIb0kIp2rgjTtnl3dIR1-24" value="" style="html=1;points=[[0,0,0,0,5],[0,1,0,0,-5],[1,0,0,0,5],[1,1,0,0,-5]];perimeter=orthogonalPerimeter;outlineConnect=0;targetShapes=umlLifeline;portConstraint=eastwest;newEdgeStyle={&quot;curved&quot;:0,&quot;rounded&quot;:0};" vertex="1" parent="1">
          <mxGeometry x="1345" y="790" width="10" height="80" as="geometry" />
        </mxCell>
        <mxCell id="HIb0kIp2rgjTtnl3dIR1-25" value="thông báo kết quả thanh toán" style="html=1;verticalAlign=bottom;endArrow=open;dashed=1;endSize=8;curved=0;rounded=0;entryX=0.487;entryY=0.562;entryDx=0;entryDy=0;entryPerimeter=0;" edge="1" parent="1" source="HIb0kIp2rgjTtnl3dIR1-15" target="HIb0kIp2rgjTtnl3dIR1-12">
          <mxGeometry relative="1" as="geometry">
            <mxPoint x="1520" y="720" as="sourcePoint" />
            <mxPoint x="1440" y="720" as="targetPoint" />
          </mxGeometry>
        </mxCell>
        <mxCell id="HIb0kIp2rgjTtnl3dIR1-29" value="lưu đơn hàng với trang thái đã thanh toán" style="html=1;verticalAlign=bottom;endArrow=block;curved=0;rounded=0;entryX=0.551;entryY=0.635;entryDx=0;entryDy=0;entryPerimeter=0;" edge="1" parent="1" source="7C-NoapM2nCU8hshfc4--6" target="7C-NoapM2nCU8hshfc4--7">
          <mxGeometry width="80" relative="1" as="geometry">
            <mxPoint x="990" y="770" as="sourcePoint" />
            <mxPoint x="1070" y="770" as="targetPoint" />
          </mxGeometry>
        </mxCell>
        <mxCell id="HIb0kIp2rgjTtnl3dIR1-30" value="xác nhận lưu đơn hàng" style="html=1;verticalAlign=bottom;endArrow=open;dashed=1;endSize=8;curved=0;rounded=0;entryX=0.506;entryY=0.666;entryDx=0;entryDy=0;entryPerimeter=0;" edge="1" parent="1" source="7C-NoapM2nCU8hshfc4--7" target="7C-NoapM2nCU8hshfc4--6">
          <mxGeometry relative="1" as="geometry">
            <mxPoint x="1070" y="810" as="sourcePoint" />
            <mxPoint x="990" y="810" as="targetPoint" />
          </mxGeometry>
        </mxCell>
        <mxCell id="HIb0kIp2rgjTtnl3dIR1-31" value="" style="html=1;points=[[0,0,0,0,5],[0,1,0,0,-5],[1,0,0,0,5],[1,1,0,0,-5]];perimeter=orthogonalPerimeter;outlineConnect=0;targetShapes=umlLifeline;portConstraint=eastwest;newEdgeStyle={&quot;curved&quot;:0,&quot;rounded&quot;:0};" vertex="1" parent="1">
          <mxGeometry x="1345" y="920" width="10" height="80" as="geometry" />
        </mxCell>
        <mxCell id="HIb0kIp2rgjTtnl3dIR1-33" value="thông báo đặt hàng thành công" style="html=1;verticalAlign=bottom;endArrow=open;dashed=1;endSize=8;curved=0;rounded=0;entryX=0.533;entryY=0.705;entryDx=0;entryDy=0;entryPerimeter=0;" edge="1" parent="1" source="HIb0kIp2rgjTtnl3dIR1-26" target="HIb0kIp2rgjTtnl3dIR1-12">
          <mxGeometry relative="1" as="geometry">
            <mxPoint x="1070" y="800" as="sourcePoint" />
            <mxPoint x="990" y="800" as="targetPoint" />
          </mxGeometry>
        </mxCell>
        <mxCell id="HIb0kIp2rgjTtnl3dIR1-34" value="" style="line;strokeWidth=2;fillColor=none;align=left;verticalAlign=middle;spacingTop=-1;spacingLeft=3;spacingRight=3;rotatable=0;labelPosition=right;points=[];portConstraint=eastwest;strokeColor=inherit;dashed=1;" vertex="1" parent="1">
          <mxGeometry x="90" y="1000" width="1660" height="8" as="geometry" />
        </mxCell>
        <mxCell id="HIb0kIp2rgjTtnl3dIR1-35" value="" style="html=1;points=[[0,0,0,0,5],[0,1,0,0,-5],[1,0,0,0,5],[1,1,0,0,-5]];perimeter=orthogonalPerimeter;outlineConnect=0;targetShapes=umlLifeline;portConstraint=eastwest;newEdgeStyle={&quot;curved&quot;:0,&quot;rounded&quot;:0};" vertex="1" parent="1">
          <mxGeometry x="1345" y="1030" width="10" height="80" as="geometry" />
        </mxCell>
        <mxCell id="HIb0kIp2rgjTtnl3dIR1-36" value="chọn &quot;thanh toán khi nhận hàng&quot;" style="html=1;verticalAlign=bottom;endArrow=block;curved=0;rounded=0;entryX=0.515;entryY=0.785;entryDx=0;entryDy=0;entryPerimeter=0;" edge="1" parent="1" source="7C-NoapM2nCU8hshfc4--2" target="HIb0kIp2rgjTtnl3dIR1-12">
          <mxGeometry width="80" relative="1" as="geometry">
            <mxPoint x="770" y="980" as="sourcePoint" />
            <mxPoint x="850" y="980" as="targetPoint" />
          </mxGeometry>
        </mxCell>
        <mxCell id="HIb0kIp2rgjTtnl3dIR1-37" value="" style="html=1;points=[[0,0,0,0,5],[0,1,0,0,-5],[1,0,0,0,5],[1,1,0,0,-5]];perimeter=orthogonalPerimeter;outlineConnect=0;targetShapes=umlLifeline;portConstraint=eastwest;newEdgeStyle={&quot;curved&quot;:0,&quot;rounded&quot;:0};" vertex="1" parent="1">
          <mxGeometry x="895" y="1080" width="10" height="130" as="geometry" />
        </mxCell>
        <mxCell id="HIb0kIp2rgjTtnl3dIR1-40" value="cập nhật trạng thái đơn hàng &quot;đã thanh toán&quot;" style="html=1;verticalAlign=bottom;endArrow=block;curved=0;rounded=0;entryX=0.515;entryY=0.582;entryDx=0;entryDy=0;entryPerimeter=0;" edge="1" parent="1" source="HIb0kIp2rgjTtnl3dIR1-12" target="7C-NoapM2nCU8hshfc4--6">
          <mxGeometry width="80" relative="1" as="geometry">
            <mxPoint x="680" y="830" as="sourcePoint" />
            <mxPoint x="760" y="830" as="targetPoint" />
          </mxGeometry>
        </mxCell>
        <mxCell id="HIb0kIp2rgjTtnl3dIR1-41" value="cập nhật trạng thái đơn hàng &quot;chờ thanh toán&quot;" style="html=1;verticalAlign=bottom;endArrow=block;curved=0;rounded=0;entryX=0.496;entryY=0.825;entryDx=0;entryDy=0;entryPerimeter=0;" edge="1" parent="1" source="HIb0kIp2rgjTtnl3dIR1-12" target="7C-NoapM2nCU8hshfc4--6">
          <mxGeometry width="80" relative="1" as="geometry">
            <mxPoint x="940" y="980" as="sourcePoint" />
            <mxPoint x="1020" y="980" as="targetPoint" />
          </mxGeometry>
        </mxCell>
        <mxCell id="HIb0kIp2rgjTtnl3dIR1-42" value="" style="html=1;points=[[0,0,0,0,5],[0,1,0,0,-5],[1,0,0,0,5],[1,1,0,0,-5]];perimeter=orthogonalPerimeter;outlineConnect=0;targetShapes=umlLifeline;portConstraint=eastwest;newEdgeStyle={&quot;curved&quot;:0,&quot;rounded&quot;:0};" vertex="1" parent="1">
          <mxGeometry x="1150" y="1100" width="10" height="110" as="geometry" />
        </mxCell>
        <mxCell id="HIb0kIp2rgjTtnl3dIR1-47" value="xác nhận lưu đơn hàng" style="html=1;verticalAlign=bottom;endArrow=open;dashed=1;endSize=8;curved=0;rounded=0;entryX=0.478;entryY=0.893;entryDx=0;entryDy=0;entryPerimeter=0;" edge="1" parent="1" source="7C-NoapM2nCU8hshfc4--7" target="7C-NoapM2nCU8hshfc4--6">
          <mxGeometry relative="1" as="geometry">
            <mxPoint x="970" y="1330" as="sourcePoint" />
            <mxPoint x="890" y="1330" as="targetPoint" />
          </mxGeometry>
        </mxCell>
        <mxCell id="HIb0kIp2rgjTtnl3dIR1-48" value="hiển thị thông báo thành công" style="html=1;verticalAlign=bottom;endArrow=open;dashed=1;endSize=8;curved=0;rounded=0;entryX=0.519;entryY=0.929;entryDx=0;entryDy=0;entryPerimeter=0;" edge="1" parent="1" source="7C-NoapM2nCU8hshfc4--6" target="7C-NoapM2nCU8hshfc4--7">
          <mxGeometry relative="1" as="geometry">
            <mxPoint x="780" y="1180" as="sourcePoint" />
            <mxPoint x="700" y="1180" as="targetPoint" />
          </mxGeometry>
        </mxCell>
        <mxCell id="HIb0kIp2rgjTtnl3dIR1-49" value="lưu đơn hàng với trạng thái chờ thanh toán" style="html=1;verticalAlign=bottom;endArrow=block;curved=0;rounded=0;entryX=0.483;entryY=0.861;entryDx=0;entryDy=0;entryPerimeter=0;" edge="1" parent="1" source="7C-NoapM2nCU8hshfc4--6" target="7C-NoapM2nCU8hshfc4--7">
          <mxGeometry x="0.0026" width="80" relative="1" as="geometry">
            <mxPoint x="1300" y="1170" as="sourcePoint" />
            <mxPoint x="1559" y="1170" as="targetPoint" />
            <mxPoint as="offset" />
          </mxGeometry>
        </mxCell>
        <mxCell id="HIb0kIp2rgjTtnl3dIR1-51" value="đặt hàng thành công" style="html=1;verticalAlign=bottom;endArrow=open;dashed=1;endSize=8;curved=0;rounded=0;entryX=0.3;entryY=0.956;entryDx=0;entryDy=0;entryPerimeter=0;" edge="1" parent="1" source="HIb0kIp2rgjTtnl3dIR1-12" target="7C-NoapM2nCU8hshfc4--2">
          <mxGeometry x="-0.0013" relative="1" as="geometry">
            <mxPoint x="1070" y="1310" as="sourcePoint" />
            <mxPoint x="990" y="1310" as="targetPoint" />
            <mxPoint as="offset" />
          </mxGeometry>
        </mxCell>
        <mxCell id="HIb0kIp2rgjTtnl3dIR1-52" value="chuyển hướng đến trang thanh toán trực tuyến" style="html=1;verticalAlign=bottom;endArrow=block;curved=0;rounded=0;entryX=0.524;entryY=0.448;entryDx=0;entryDy=0;entryPerimeter=0;" edge="1" parent="1" source="HIb0kIp2rgjTtnl3dIR1-12" target="HIb0kIp2rgjTtnl3dIR1-15">
          <mxGeometry x="-0.0036" width="80" relative="1" as="geometry">
            <mxPoint x="1510" y="430" as="sourcePoint" />
            <mxPoint x="1791" y="430" as="targetPoint" />
            <mxPoint as="offset" />
          </mxGeometry>
        </mxCell>
      </root>
    </mxGraphModel>
  </diagram>
</mxfile>
